<?xml version="1.0" standalone="no"?><!DOCTYPE svg PUBLIC "-//W3C//DTD SVG 1.1//EN" "http://www.w3.org/Graphics/SVG/1.1/DTD/svg11.dtd"><svg t="1492693464123" class="icon" style="" viewBox="0 0 1024 1024" version="1.1" xmlns="http://www.w3.org/2000/svg" p-id="5569" xmlns:xlink="http://www.w3.org/1999/xlink" width="200" height="200"><defs><style type="text/css"></style></defs><path d="M369.862769 228.389664c78.313623 0 141.80568-38.731116 141.80568-86.511329 0-47.77612-63.492056-86.507236-141.80568-86.507236-78.319763 0-141.806703 38.731116-141.806703 86.507236C228.056066 189.659571 291.541983 228.389664 369.862769 228.389664M514.544963 283.684014l57.075927 0c-1.870604-9.222035-2.880607-18.760273-2.880607-28.535917 0-68.528769 48.354288-125.300774 112.775506-139.066289 0.483001 0.020466 0.893346-0.063445 1.382487-0.063445 15.764032 0 28.541033-12.782118 28.541033-28.541033 0-15.764032-12.777001-28.542056-28.541033-28.542056l0-0.687662c-96.686063 13.954827-171.235966 96.339162-171.235966 196.895369C511.668449 264.923742 513.181919 274.2829 514.544963 283.684014L514.544963 283.684014 514.544963 283.684014zM679.334099 283.684014c-41.212634 0-131.884726 43.016723-167.261445 58.733683-35.398208-15.722076-129.638569-58.733683-170.861436-58.733683-157.681252 0-230.206032 127.82527-230.206032 285.500383 0 21.688975 2.88777 42.606377 7.467065 62.907749 30.386054 190.522218 194.114023 336.535733 393.196197 336.535733 198.041472 0 361.270067-144.456043 392.892275-333.522096 5.064342-21.290909 8.43409-43.200918 8.43409-66.026786C912.994814 411.462213 836.951907 283.684014 679.334099 283.684014L679.334099 283.684014 679.334099 283.684014zM396.715347 418.507676c-55.803957 27.227108-97.218182 79.261205-109.069091 142.217049-0.299829 15.505136-12.95608 27.978215-28.525684 27.978215-15.764032 0-28.541033-12.771885-28.541033-28.541033 0-2.429329 0.310062-4.79112 0.877997-7.046486 14.786775-83.887572 70.248947-153.063071 145.130402-187.724499 3.828188-1.904373 8.134261-2.975774 12.692067-2.975774 15.759939 0 28.542056 12.777001 28.542056 28.535917C417.822061 404.14762 408.866085 415.237189 396.715347 418.507676L396.715347 418.507676zM396.715347 418.507676" p-id="5570" fill="#f4ea2a"></path></svg>